<svg width="152" height="37" viewBox="0 0 152 37" fill="none" xmlns="http://www.w3.org/2000/svg">
<g clip-path="url(#clip0_1_72)">
<path fill-rule="evenodd" clip-rule="evenodd" d="M4.51774 0.115914C2.47382 0.171147 0.685676 0.22565 0.544023 0.237017C0.241481 0.261209 0.271065 0.323438 2.1092 3.53657C2.33844 3.93734 2.66984 4.52756 2.84559 4.84817C3.81341 6.61358 3.99499 6.9323 4.29855 7.3985C4.6145 7.88351 4.73779 8.10619 5.34842 9.29304C5.49269 9.57358 5.68244 9.87947 5.77002 9.97288C5.85776 10.0662 6.01792 10.3613 6.1262 10.6287C6.23433 10.896 6.36287 11.1475 6.41169 11.1876C6.4863 11.2488 9.08998 15.8056 9.96059 17.3986C10.1087 17.6695 10.2771 17.8913 10.335 17.8913C10.3927 17.8913 10.8944 17.095 11.4501 16.1217C12.0057 15.1483 12.6242 14.0728 12.8245 13.7314C13.3313 12.8682 14.5499 10.7754 14.8839 10.1945C15.0368 9.92902 15.2577 9.56527 15.3749 9.38646C15.5681 9.09149 15.5565 9.0141 15.2511 8.55767C15.0659 8.28077 14.395 7.15134 13.7602 6.0477C13.1253 4.94421 12.4586 3.79656 12.2785 3.49737C12.0984 3.19832 11.8174 2.69131 11.6542 2.3707C11.4909 2.05009 11.1123 1.39429 10.8128 0.913367L10.2682 0.0389664L9.25101 0.0273075C8.69169 0.0208952 6.56165 0.0608264 4.51774 0.115914ZM24.4103 0.0764204L20.9127 0.119412L20.4027 1.01786C20.1221 1.51204 19.7217 2.21535 19.5127 2.58085C16.8153 7.29664 16.0117 8.73969 16.0575 8.7856C16.0875 8.81547 20.7083 8.88673 26.326 8.94372L36.5399 9.04748L36.9603 8.33237C37.4433 7.51087 37.4789 7.44922 38.8136 5.12492C39.3614 4.17109 40.2281 2.66945 40.7396 1.78777C41.2512 0.90608 41.6719 0.135442 41.6747 0.0753998C41.6793 -0.0255935 32.6817 -0.02501 24.4103 0.0764204ZM25.8563 9.65431C25.7166 9.86767 25.498 10.2345 25.3706 10.4695C25.2432 10.7046 24.516 11.9859 23.7545 13.3167C22.9931 14.6476 22.2337 15.9754 22.067 16.2674C21.9002 16.5595 21.6104 17.0606 21.4228 17.3812C21.0005 18.1032 20.7301 18.5793 19.506 20.757C18.9727 21.7057 18.014 23.4081 17.3755 24.54C16.5196 26.0572 16.2848 26.5796 16.4822 26.5281C16.6293 26.4896 16.8255 26.3667 16.9182 26.2552C17.0107 26.1436 17.1506 26.0524 17.2292 26.0524C17.3076 26.0524 18.1357 25.618 19.0694 25.0869C21.5525 23.6746 21.5295 23.6876 22.9328 22.9079C24.1629 22.2244 24.6131 21.9701 25.811 21.2818C26.1004 21.1155 27.3464 20.4059 28.5799 19.7051C29.8134 19.0043 30.9133 18.3476 31.024 18.246C31.2336 18.0537 31.2186 18.0178 30.2092 16.2882C30.0454 16.0077 29.4527 14.9912 28.8918 14.0294C28.331 13.0675 27.4757 11.6025 26.9913 10.7735L26.1103 9.26651L25.8563 9.65431ZM19.7753 27.3713C17.7871 27.4296 16.1223 27.5153 16.0757 27.5617C16.0292 27.6082 16.0973 27.8082 16.2268 28.0059C16.4887 28.4057 16.7822 28.9214 17.58 30.3834C17.8765 30.927 18.5106 32.0602 18.9891 32.9019C19.4675 33.7435 20.0604 34.8091 20.3065 35.27C20.5526 35.731 20.7903 36.108 20.8348 36.108C20.8791 36.108 21.2953 35.4357 21.7595 34.6142C22.2236 33.7927 22.723 32.9237 22.8692 32.6833C23.0154 32.4428 23.6119 31.4263 24.1947 30.4244C24.7775 29.4225 25.4079 28.3404 25.5956 28.0198C25.7834 27.6992 25.9378 27.3877 25.9388 27.3276C25.9407 27.2078 25.1673 27.2133 19.7753 27.3713ZM14.6009 44.2813C13.566 44.6907 12.9703 45.4849 12.9703 46.4554C12.9703 47.6746 13.8141 48.501 15.5935 49.0249C17.3182 49.5328 17.9083 50.0319 17.6348 50.7517C17.2376 51.7959 15.1589 51.781 14.1936 50.7271C13.7415 50.2336 13.7188 50.2264 13.303 50.4415C12.5348 50.8387 12.4929 51.0033 13.0022 51.6213C14.1787 53.0485 16.9357 53.3331 18.4719 52.186C19.1105 51.709 19.3825 51.1325 19.3825 50.2564C19.3825 49.0139 18.7425 48.5009 16.0078 47.5514C15.0712 47.2263 14.8631 47.094 14.7112 46.7274C14.5534 46.3465 14.5674 46.2408 14.8208 45.8992C15.4077 45.1085 16.5764 45.1461 17.413 45.9826L17.7825 46.3522L18.364 46.09C19.0503 45.7806 19.0853 45.5812 18.5446 45.0611C17.5435 44.0981 15.8905 43.7712 14.6009 44.2813ZM27.0322 44.2629C26.0294 44.5911 25.1969 45.3073 24.5472 46.4006C24.1662 47.0414 24.1247 47.2391 24.1219 48.4225C24.1183 50.0086 24.4544 50.8035 25.5423 51.7818C27.666 53.691 31.1348 53.0431 32.4573 50.4901C32.7897 49.8485 32.8499 49.5467 32.8559 48.4953C32.8642 47.0166 32.5246 46.2019 31.5098 45.2665C30.2403 44.0962 28.6385 43.7373 27.0322 44.2629ZM34.4674 44.1399C34.424 44.253 34.4059 46.2139 34.4272 48.4972L34.466 52.6487L35.2311 52.6927L35.9962 52.7369V50.0939C35.9962 48.6393 36.0536 47.4727 36.124 47.4995C36.1942 47.5262 37.4516 48.7122 38.9181 50.1348C40.3845 51.5575 41.6387 52.7216 41.705 52.7216C41.7713 52.7216 41.8255 50.8198 41.8255 48.4953V44.2691H41.0273H40.229L40.1893 46.9167L40.1496 49.5643L37.348 46.7492C35.483 44.8753 34.52 44.003 34.4674 44.1399ZM0 44.3507C0 44.4036 0.786961 46.0499 1.7488 48.0092C2.71064 49.9686 3.49789 51.6172 3.49833 51.6729C3.49877 51.7287 3.65441 52.031 3.8443 52.3446L4.1894 52.9148L6.32177 48.6284L8.454 44.3419L7.70376 44.2972C7.29119 44.2726 6.9015 44.3054 6.83767 44.3701C6.71802 44.4915 6.24511 45.4432 5.02328 48.0217C4.63388 48.8432 4.27626 49.5155 4.2286 49.5155C4.1808 49.5155 3.63474 48.4499 3.01522 47.1473C2.39571 45.8449 1.83406 44.6808 1.76731 44.5605C1.64562 44.3416 0 44.1462 0 44.3507ZM9.50692 48.4516L9.54554 52.6487H10.3471H11.1486V48.4953V44.3419L10.3085 44.2982L9.46815 44.2543L9.50692 48.4516ZM20.8399 48.4953V52.7216H21.6414H22.4429V48.4953V44.2691H21.6414H20.8399V48.4953ZM29.7913 45.902C30.7075 46.3828 31.4178 47.7266 31.2814 48.7212C31.1652 49.569 30.8094 50.2355 30.1961 50.7542C29.714 51.1618 29.5988 51.1914 28.4935 51.1914C27.4027 51.1914 27.2679 51.158 26.8064 50.7742C25.6868 49.8426 25.357 48.4561 25.9653 47.2382C26.361 46.4459 26.7768 46.0508 27.4933 45.786C28.0946 45.5639 29.2589 45.6226 29.7913 45.902Z" fill="url(#paint0_linear_1_72)"/>
</g>
<g clip-path="url(#clip1_1_72)">
<path fill-rule="evenodd" clip-rule="evenodd" d="M56.846 -102.941C51.6329 -102.801 47.0722 -102.662 46.7109 -102.633C45.9393 -102.571 46.0147 -102.412 50.7029 -94.2211C51.2876 -93.1994 52.1328 -91.6947 52.5811 -90.8774C55.0495 -86.3768 55.5127 -85.5643 56.2869 -84.3758C57.0928 -83.1394 57.4072 -82.5717 58.9646 -79.5461C59.3326 -78.8309 59.8166 -78.0511 60.0399 -77.813C60.2637 -77.5752 60.6722 -76.8229 60.9484 -76.1412C61.2242 -75.4598 61.552 -74.8185 61.6765 -74.7164C61.8668 -74.5603 68.5076 -62.9437 70.7281 -58.8827C71.1057 -58.192 71.5354 -57.6266 71.683 -57.6266C71.8302 -57.6266 73.1099 -59.6565 74.5272 -62.1379C75.9441 -64.6193 77.5216 -67.3611 78.0326 -68.2315C79.325 -70.432 82.4332 -75.767 83.2851 -77.2479C83.675 -77.9248 84.2385 -78.8521 84.5373 -79.308C85.0302 -80.0599 85.0005 -80.2572 84.2218 -81.4208C83.7493 -82.1267 82.0381 -85.0059 80.4189 -87.8194C78.7998 -90.6326 77.0993 -93.5583 76.6399 -94.321C76.1805 -95.0833 75.4639 -96.3759 75.0476 -97.1932C74.6313 -98.0105 73.6656 -99.6824 72.9018 -100.908L71.5127 -103.137L68.9183 -103.167C67.4917 -103.184 62.059 -103.082 56.846 -102.941ZM107.583 -103.042L98.6618 -102.932L97.3609 -100.642C96.6453 -99.3822 95.6239 -97.5892 95.0909 -96.6575C88.2112 -84.6355 86.1616 -80.9568 86.2784 -80.8397C86.3549 -80.7636 98.1403 -80.5819 112.468 -80.4366L138.519 -80.1721L139.592 -81.9952C140.823 -84.0894 140.914 -84.2465 144.318 -90.1719C145.716 -92.6035 147.926 -96.4316 149.231 -98.6793C150.535 -100.927 151.608 -102.892 151.616 -103.045C151.627 -103.302 128.679 -103.301 107.583 -103.042ZM111.27 -78.6251C110.914 -78.0812 110.356 -77.1461 110.032 -76.5468C109.707 -75.9476 107.852 -72.6812 105.91 -69.2885C103.968 -65.8958 102.031 -62.5109 101.606 -61.7664C101.18 -61.0219 100.441 -59.7442 99.9627 -58.9269C98.8856 -57.0864 98.1961 -55.8726 95.0738 -50.321C93.7138 -47.9025 91.2684 -43.5628 89.64 -40.6772C87.457 -36.8093 86.8582 -35.4774 87.3615 -35.6089C87.7369 -35.707 88.2372 -36.0202 88.4736 -36.3044C88.7096 -36.589 89.0665 -36.8216 89.2668 -36.8216C89.4668 -36.8216 91.5788 -37.9291 93.9602 -39.2829C100.294 -42.8833 100.235 -42.8502 103.814 -44.8378C106.951 -46.5802 108.1 -47.2285 111.155 -48.9832C111.893 -49.4071 115.071 -51.216 118.217 -53.0027C121.363 -54.7893 124.168 -56.4633 124.451 -56.7223C124.985 -57.2127 124.947 -57.3041 122.373 -61.7133C121.955 -62.4284 120.443 -65.0198 119.013 -67.4718C117.582 -69.9238 115.401 -73.6587 114.165 -75.7719L111.918 -79.6137L111.27 -78.6251ZM95.7607 -33.4594C90.6897 -33.3107 86.4438 -33.0923 86.3248 -32.9738C86.2062 -32.8553 86.3798 -32.3455 86.7103 -31.8414C87.3782 -30.8223 88.1268 -29.5075 90.1615 -25.7804C90.9179 -24.3947 92.5351 -21.5058 93.7554 -19.3602C94.9757 -17.2147 96.4877 -14.4982 97.1155 -13.3231C97.7433 -12.148 98.3496 -11.1869 98.4629 -11.1869C98.5759 -11.1869 99.6375 -12.9007 100.821 -14.9949C102.005 -17.0892 103.279 -19.3045 103.652 -19.9175C104.025 -20.5305 105.546 -23.1219 107.032 -25.676C108.519 -28.2302 110.127 -30.9888 110.606 -31.8061C111.085 -32.6234 111.478 -33.4174 111.481 -33.5708C111.486 -33.8762 109.513 -33.8621 95.7607 -33.4594ZM82.5633 9.64935C79.9238 10.6929 78.4043 12.7177 78.4043 15.1917C78.4043 18.2998 80.5565 20.4066 85.0949 21.7422C89.4939 23.037 90.9989 24.3094 90.3012 26.1443C89.2884 28.8063 83.9865 28.7684 81.5244 26.0816C80.3714 24.8236 80.3134 24.805 79.2529 25.3534C77.2937 26.3661 77.1867 26.7856 78.4857 28.3612C81.4865 31.9995 88.5182 32.7251 92.4363 29.8008C94.065 28.5849 94.759 27.1151 94.759 24.8816C94.759 21.714 93.1265 20.4063 86.1516 17.9858C83.7627 17.157 83.2319 16.8196 82.8446 15.8853C82.4421 14.9141 82.4778 14.6448 83.1241 13.7739C84.621 11.7581 87.602 11.8539 89.7355 13.9864L90.6781 14.9286L92.1612 14.2602C93.9115 13.4715 94.0007 12.9633 92.6217 11.6373C90.0686 9.18234 85.8524 8.34904 82.5633 9.64935ZM114.27 9.60253C111.712 10.4392 109.589 12.2648 107.932 15.052C106.96 16.6855 106.854 17.1897 106.847 20.2064C106.838 24.25 107.695 26.2762 110.469 28.7702C115.886 33.6375 124.733 31.9857 128.106 25.4775C128.954 23.8417 129.108 23.0723 129.123 20.3921C129.144 16.6224 128.278 14.5456 125.69 12.1608C122.452 9.17751 118.367 8.26247 114.27 9.60253ZM133.233 9.28898C133.123 9.57727 133.076 14.576 133.131 20.397L133.23 30.9804L135.181 31.0926L137.132 31.2052V24.4673C137.132 20.7592 137.279 17.7852 137.458 17.8536C137.638 17.9216 140.845 20.945 144.585 24.5717C148.325 28.1985 151.524 31.1662 151.693 31.1662C151.862 31.1662 152 26.3179 152 20.3921V9.61813H149.964H147.928L147.827 16.3679L147.726 23.1172L140.58 15.9406C135.824 11.1637 133.367 8.93975 133.233 9.28898ZM45.3234 9.82619C45.3234 9.96104 47.3305 14.1581 49.7837 19.1528C52.2369 24.1478 54.2448 28.3508 54.2459 28.4927C54.2471 28.635 54.644 29.4055 55.1283 30.205L56.0085 31.6588L61.4472 20.7313L66.8855 9.80389L64.972 9.68983C63.9197 9.62705 62.9258 9.71064 62.763 9.8756C62.4578 10.1851 61.2517 12.6115 58.1354 19.1847C57.1422 21.279 56.2301 22.9928 56.1085 22.9928C55.9866 22.9928 54.5938 20.2762 53.0138 16.9556C51.4337 13.6354 50.0012 10.6677 49.8309 10.3612C49.5206 9.80315 45.3234 9.30495 45.3234 9.82619ZM69.571 20.2807L69.6695 30.9804H71.7138H73.7581V20.3921V9.80389L71.6153 9.69244L69.4721 9.5806L69.571 20.2807ZM98.476 20.3921V31.1662H100.52H102.565V20.3921V9.61813H100.52H98.476V20.3921ZM121.307 13.781C123.644 15.0066 125.455 18.4324 125.107 20.968C124.811 23.1291 123.903 24.8284 122.339 26.1507C121.11 27.1898 120.816 27.2652 117.997 27.2652C115.215 27.2652 114.871 27.1801 113.694 26.2016C110.838 23.8268 109.997 20.2922 111.549 17.1874C112.558 15.1675 113.618 14.1603 115.446 13.4853C116.979 12.9191 119.949 13.0688 121.307 13.781Z" fill="white"/>
</g>
<defs>
<linearGradient id="paint0_linear_1_72" x1="0" y1="26.3045" x2="41.8255" y2="26.3045" gradientUnits="userSpaceOnUse">
<stop stop-color="#1596FB"/>
<stop offset="1" stop-color="#3D41FE"/>
</linearGradient>
<clipPath id="clip0_1_72">
<rect width="41.8255" height="36.7248" fill="white"/>
</clipPath>
<clipPath id="clip1_1_72">
<rect width="106.677" height="26.3778" fill="white" transform="translate(45.3234 5.24634)"/>
</clipPath>
</defs>
</svg>
