<svg width="37" height="30" viewBox="0 0 37 30" fill="none" xmlns="http://www.w3.org/2000/svg">
<g clip-path="url(#clip0_1_192)">
<path d="M36.7482 3.65316C35.3961 4.25273 33.9431 4.65795 32.4182 4.84024C33.9749 3.90723 35.1701 2.42976 35.7329 0.669382C34.2531 1.54754 32.6341 2.16626 30.9457 2.49881C29.5705 1.03369 27.6113 0.118042 25.4428 0.118042C21.2793 0.118042 17.9036 3.49354 17.9036 7.6568C17.9036 8.24776 17.9704 8.82307 18.0988 9.37498C11.8333 9.06048 6.27826 6.05919 2.55984 1.49804C1.91103 2.61149 1.53926 3.90665 1.53926 5.28809C1.53926 7.90369 2.87032 10.2111 4.89309 11.5631C3.69589 11.5256 2.52503 11.2023 1.47826 10.6201C1.47783 10.6516 1.47783 10.6832 1.47783 10.7149C1.47783 14.3676 4.07649 17.4147 7.5252 18.1073C6.41503 18.4092 5.25055 18.4534 4.1207 18.2365C5.07998 21.2316 7.86424 23.4111 11.1631 23.4721C8.58295 25.494 5.33218 26.6993 1.80022 26.6993C1.19161 26.6993 0.591609 26.6636 0.00180054 26.594C3.33812 28.733 7.30084 29.9811 11.5583 29.9811C25.4253 29.9811 33.0081 18.4934 33.0081 8.5311C33.0081 8.20412 33.0009 7.879 32.9863 7.55575C34.4622 6.48879 35.7361 5.16725 36.7482 3.65316Z" fill="#55ACEE"/>
</g>
<defs>
<clipPath id="clip0_1_192">
<rect width="36.75" height="30" fill="white"/>
</clipPath>
</defs>
</svg>
